<?xml version="1.0" encoding="UTF-8" standalone="no"?>
<svg
   version="1.2"
   viewBox="0 0 195.30832 173.44397"
   width="195.30832"
   height="173.44397"
   id="svg13693"
   sodipodi:docname="arrow-zig-zag.svg"
   inkscape:version="1.2.1 (9c6d41e410, 2022-07-14)"
   xmlns:inkscape="http://www.inkscape.org/namespaces/inkscape"
   xmlns:sodipodi="http://sodipodi.sourceforge.net/DTD/sodipodi-0.dtd"
   xmlns="http://www.w3.org/2000/svg"
   xmlns:svg="http://www.w3.org/2000/svg"
   xmlns:rdf="http://www.w3.org/1999/02/22-rdf-syntax-ns#"
   xmlns:cc="http://creativecommons.org/ns#"
   xmlns:dc="http://purl.org/dc/elements/1.1/">
  <defs
     id="defs13697" />
  <sodipodi:namedview
     id="namedview13695"
     pagecolor="#505050"
     bordercolor="#eeeeee"
     borderopacity="1"
     inkscape:showpageshadow="0"
     inkscape:pageopacity="0"
     inkscape:pagecheckerboard="0"
     inkscape:deskcolor="#505050"
     showgrid="false"
     inkscape:zoom="0.837"
     inkscape:cx="-192.35364"
     inkscape:cy="236.55914"
     inkscape:window-width="1920"
     inkscape:window-height="1017"
     inkscape:window-x="1912"
     inkscape:window-y="-8"
     inkscape:window-maximized="1"
     inkscape:current-layer="Elements" />
  <title
     id="title13616">15961277_282_Arrow_Set-ai</title>
  <style
     id="style13618">
		.s0 { fill: #000000 } 
	</style>
  <g
     id="Elements"
     transform="translate(-691.4,-262.45603)">
    <path
       id="path13628"
       class="s0"
       d="m 691.4,434.7 c 0.8,-2.2 1.4,-4.6 2.5,-6.7 15.5,-29.4 33.6,-57 55.5,-81.9 3.6,-4.1 7.5,-8 11.8,-11.3 7.2,-5.4 13.9,-2.7 15.1,6.4 1.2,8.9 1.5,17.9 2.3,26.9 0.4,4.3 0.7,8.9 5.6,12.5 2.7,-2.2 5.7,-4 8,-6.4 5,-5.4 10.1,-10.9 14.5,-16.8 17.1,-22.8 33.9,-45.8 51.8,-70 -11.7,2.4 -18.6,13.6 -29.9,13 q -0.6,-1 -1.2,-2 c 1.5,-1.7 2.8,-3.9 4.7,-5.2 14.1,-9.4 28.3,-18.8 42.5,-28.1 3,-2 6.7,-4.2 9.6,-1.1 1.8,2 2.6,5.7 2.5,8.6 -0.1,7.7 -0.9,15.3 -1.5,23 -0.2,1.9 -0.1,4.1 -1,5.6 -1,1.7 -2.9,2.9 -4.4,4.3 -1.4,-1.5 -3.7,-2.9 -4,-4.7 -0.8,-4 -0.6,-8.2 -0.7,-12.4 -0.1,-1.5 -0.1,-2.9 -0.3,-6.7 -5.7,8 -10.1,14.2 -14.5,20.3 -14.6,20.4 -29,40.8 -43.8,61 -4.9,6.7 -10.7,12.8 -16.4,18.9 -2.6,2.8 -5.8,5.1 -9.1,7 -7.6,4.2 -15.1,2.2 -18.5,-5.8 -2.6,-6.4 -3.8,-13.5 -4.9,-20.4 -1,-5.5 -0.9,-11.2 -1.4,-19.2 -4.4,4.3 -7.4,7 -10.1,10 -17.7,19.1 -32.8,40.2 -47.1,62 -3.5,5.3 -7.1,10.7 -11,15.8 -1.3,1.8 -3.4,3.1 -5.1,4.6 q -0.7,-0.6 -1.5,-1.2 z" />
  </g>
  <metadata
     id="metadata13761">
    <rdf:RDF>
      <cc:Work
         rdf:about="">
        <dc:title>15961277_282_Arrow_Set-ai</dc:title>
      </cc:Work>
    </rdf:RDF>
  </metadata>
</svg>
