<?xml version="1.0" encoding="UTF-8" standalone="no"?>
<svg
   version="1.2"
   viewBox="0 0 155.6862 211.56299"
   width="155.6862"
   height="211.56299"
   id="svg13693"
   sodipodi:docname="Arrow-wiggle.svg"
   inkscape:version="1.2.1 (9c6d41e410, 2022-07-14)"
   xmlns:inkscape="http://www.inkscape.org/namespaces/inkscape"
   xmlns:sodipodi="http://sodipodi.sourceforge.net/DTD/sodipodi-0.dtd"
   xmlns="http://www.w3.org/2000/svg"
   xmlns:svg="http://www.w3.org/2000/svg"
   xmlns:rdf="http://www.w3.org/1999/02/22-rdf-syntax-ns#"
   xmlns:cc="http://creativecommons.org/ns#"
   xmlns:dc="http://purl.org/dc/elements/1.1/">
  <defs
     id="defs13697" />
  <sodipodi:namedview
     id="namedview13695"
     pagecolor="#505050"
     bordercolor="#eeeeee"
     borderopacity="1"
     inkscape:showpageshadow="0"
     inkscape:pageopacity="0"
     inkscape:pagecheckerboard="0"
     inkscape:deskcolor="#505050"
     showgrid="false"
     inkscape:zoom="0.837"
     inkscape:cx="272.40143"
     inkscape:cy="-247.31183"
     inkscape:window-width="1920"
     inkscape:window-height="1017"
     inkscape:window-x="1912"
     inkscape:window-y="-8"
     inkscape:window-maximized="1"
     inkscape:current-layer="Elements" />
  <title
     id="title13616">15961277_282_Arrow_Set-ai</title>
  <style
     id="style13618">
		.s0 { fill: #007af5} 
	</style>
  <g
     id="Elements"
     transform="translate(-226.43955,-746.90473)">
    <path
       id="path13626"
       class="s0"
       d="m 352.6,761.1 c -6.7,4.3 -11.9,7.9 -17.4,11.1 -3.2,1.8 -6.8,3.9 -10.3,-1.7 9.9,-7.8 19.1,-16.2 29.9,-22.3 4.5,-2.5 7.7,-1.3 10.8,2.9 1.1,1.6 1.9,3.4 2.8,5.1 q 6.2,13.5 12.4,27.1 c 1.3,3 2.6,6.4 -1.1,8.5 -3.4,1.8 -6.4,0.1 -8.4,-2.7 -2.1,-3.2 -3.8,-6.7 -5.6,-10.1 -1.3,-2.4 -2.4,-4.9 -4.8,-7 q 0,1.8 0,3.6 c -0.1,13.5 -3.3,18.3 -15.7,23.4 -9.9,4.1 -20.3,5.9 -31,5 -2.6,-0.2 -5.2,-0.5 -7.7,-0.6 -10.6,-0.3 -14.2,3.9 -11.3,14.1 1.4,5.2 3.9,10.2 6,15.2 6.4,15.1 3.5,24.1 -10.9,32 -10.8,5.9 -22.4,9.6 -34.8,10.4 -3.8,0.2 -7.7,0.4 -11.4,1.2 -6,1.5 -7.6,4.4 -4.9,9.9 2.9,5.8 6.7,11 10.2,16.4 2.5,3.7 5.5,7.1 7.6,11.1 4.5,8.2 5.1,16.7 -0.8,24.5 -4.4,5.8 -9.3,11.4 -14.5,16.5 -3.5,3.4 -8.1,5.3 -14.1,2.2 1.6,-1.8 3,-3.3 4.3,-4.7 5.2,-5.7 10.5,-11.2 15.3,-17.2 4.7,-5.8 3.9,-12 -0.3,-17.8 -3.5,-5 -7.5,-9.6 -10.9,-14.7 -3,-4.5 -6.1,-9.1 -8.1,-14.1 -4.2,-10.8 0.9,-20.2 12.2,-22.8 5.3,-1.2 10.8,-1.6 16.2,-1.9 10.8,-0.6 20.8,-4 30.1,-9.3 7.7,-4.3 8.6,-7.7 5.4,-15.8 -2.6,-6.6 -5.8,-13 -7.5,-19.7 -1.1,-4.5 -0.8,-9.7 0.3,-14.1 2,-8.1 8,-12.3 16.3,-12.4 4.5,-0.1 9,0.3 13.4,1 10.3,1.7 19.7,-1 29.1,-4.7 4.4,-1.7 7.3,-4.5 7.2,-10 -0.1,-5.3 1.2,-10.6 2,-17.6 z" />
  </g>
  <metadata
     id="metadata13751">
    <rdf:RDF>
      <cc:Work
         rdf:about="">
        <dc:title>15961277_282_Arrow_Set-ai</dc:title>
      </cc:Work>
    </rdf:RDF>
  </metadata>
</svg>
