<?xml version="1.0" encoding="UTF-8" standalone="no"?>
<svg
   version="1.2"
   viewBox="0 0 232.58486 271.33398"
   width="232.58485"
   height="271.33398"
   id="svg13693"
   sodipodi:docname="arrow-loop.svg"
   inkscape:version="1.2.1 (9c6d41e410, 2022-07-14)"
   xmlns:inkscape="http://www.inkscape.org/namespaces/inkscape"
   xmlns:sodipodi="http://sodipodi.sourceforge.net/DTD/sodipodi-0.dtd"
   xmlns="http://www.w3.org/2000/svg"
   xmlns:svg="http://www.w3.org/2000/svg"
   xmlns:rdf="http://www.w3.org/1999/02/22-rdf-syntax-ns#"
   xmlns:cc="http://creativecommons.org/ns#"
   xmlns:dc="http://purl.org/dc/elements/1.1/">
  <defs
     id="defs13697" />
  <sodipodi:namedview
     id="namedview13695"
     pagecolor="#505050"
     bordercolor="#eeeeee"
     borderopacity="1"
     inkscape:showpageshadow="0"
     inkscape:pageopacity="0"
     inkscape:pagecheckerboard="0"
     inkscape:deskcolor="#505050"
     showgrid="false"
     inkscape:zoom="0.837"
     inkscape:cx="-225.80645"
     inkscape:cy="375.14934"
     inkscape:window-width="1920"
     inkscape:window-height="1017"
     inkscape:window-x="1912"
     inkscape:window-y="-8"
     inkscape:window-maximized="1"
     inkscape:current-layer="Elements" />
  <title
     id="title13616">15961277_282_Arrow_Set-ai</title>
  <style
     id="style13618">
		.s0 { fill: #007af5 } 
	</style>
  <g
     id="Elements"
     transform="translate(-724.9,-124.42935)">
    <path
       id="&lt;Compound Path&gt;"
       fill-rule="evenodd"
       class="s0"
       d="m 873.2,375.4 c 1.6,-0.1 2.3,0 2.7,-0.3 36.7,-22 61.3,-53.1 70.9,-95.3 2.4,-10.7 2,-21.7 -0.7,-32.4 -5.9,-23.3 -25.2,-39.3 -49.1,-40.7 -12.4,-0.7 -24.3,0.5 -35.2,7.4 -0.9,5.7 -1.4,11.5 -2.6,17.1 -2.1,8.7 -6.7,15.9 -14.8,20.4 -6.1,3.4 -11.9,3.5 -15.2,0.1 -4.2,-4.2 -4.1,-9.7 -1.6,-14.3 3.5,-6.4 8,-12.3 12.6,-18 3,-3.6 7,-6.5 10.5,-9.6 -3.4,-22.5 -24.7,-32.2 -50.4,-22.8 -0.8,3.2 -1.5,6.6 -2.7,9.9 -4.1,11.8 -11.3,20.9 -23.4,25.1 -4.6,1.5 -9.6,2.1 -13.6,-2 -3,-3.1 -3,-8.8 0.3,-14.4 5.1,-8.8 12.9,-15 21.4,-20.3 2.9,-1.9 6,-3.6 8.9,-5.2 -3.9,-35.1 -35.3,-59.8 -66.3,-45.8 0.3,-2.6 0,-4.8 0.9,-6 1,-1.3 3.2,-2.2 5,-2.5 16.9,-3.2 32.7,-1.3 45.7,11.1 9.8,9.2 16.5,20.4 20.8,33.1 q 0.9,2.7 2,5.4 c 0.1,0.3 0.4,0.4 1.1,1.1 1.7,-0.2 3.9,-0.3 6.1,-0.6 26.8,-4.2 40.8,3 53.3,28 2.5,-0.8 5.1,-1.7 7.7,-2.5 15.4,-5.2 30.8,-5.6 46.3,-0.5 25.5,8.3 41.9,30.3 43.5,57.8 0.9,15 -1.5,29.5 -6.9,43.4 -13.3,33.8 -34.9,60.3 -67.2,77.7 q -2.5,1.4 -5,2.8 c -0.2,0.2 -0.3,0.6 -1.1,1.9 6.7,1.6 13.2,1 19.6,0.7 6.3,-0.3 12.5,-0.8 19.3,-1.2 -0.5,5.2 -3.3,7.3 -6.7,8.4 -4,1.2 -8,2.8 -12.1,3 -10.9,0.4 -21.8,0.6 -32.7,-0.1 -8.7,-0.6 -11,-5.2 -7.2,-12.2 q 12.4,-22.3 25.1,-44.5 c 1.3,-2.3 3.2,-4.3 5.3,-7.1 3.8,4.4 2.1,7.6 0.8,10.6 -4.9,10.8 -9.9,21.6 -15.3,33.3 z M 766.8,214 c 13.8,-1.8 22.4,-10.7 22.9,-23.1 -9.2,6.2 -18.1,11.6 -22.9,23.1 z m 67.6,31.1 c 11.8,-2.7 17.3,-10.8 16.1,-23 -7.6,6.3 -14.3,12.4 -16.1,23 z" />
  </g>
  <metadata
     id="metadata13771">
    <rdf:RDF>
      <cc:Work
         rdf:about="">
        <dc:title>15961277_282_Arrow_Set-ai</dc:title>
      </cc:Work>
    </rdf:RDF>
  </metadata>
</svg>
